{
  "asset": {
    "generator": "glTF-Transform v4.2.1",
    "version": "2.0"
  },
  "accessors": [
    {
      "type": "VEC3",
      "componentType": 5126,
      "count": 1232,
      "max": [
        1.0010625123977661,
        4.308353424072266,
        0.9976097941398621
      ],
      "min": [
        -1.0010625123977661,
        -4.1929097175598145,
        -1.0010625123977661
      ],
      "bufferView": 0,
      "byteOffset": 0
    },
    {
      "type": "VEC3",
      "componentType": 5126,
      "count": 1232,
      "bufferView": 0,
      "byteOffset": 12
    },
    {
      "type": "VEC2",
      "componentType": 5126,
      "count": 1232,
      "bufferView": 0,
      "byteOffset": 24
    },
    {
      "type": "SCALAR",
      "componentType": 5123,
      "count": 1716,
      "bufferView": 1,
      "byteOffset": 0
    },
    {
      "type": "SCALAR",
      "componentType": 5123,
      "count": 51,
      "bufferView": 1,
      "byteOffset": 3432
    },
    {
      "type": "SCALAR",
      "componentType": 5123,
      "count": 900,
      "bufferView": 1,
      "byteOffset": 3536
    },
    {
      "type": "SCALAR",
      "componentType": 5123,
      "count": 1698,
      "bufferView": 1,
      "byteOffset": 5336
    },
    {
      "type": "SCALAR",
      "componentType": 5123,
      "count": 414,
      "bufferView": 1,
      "byteOffset": 8732
    },
    {
      "type": "SCALAR",
      "componentType": 5123,
      "count": 1038,
      "bufferView": 1,
      "byteOffset": 9560
    },
    {
      "type": "VEC3",
      "componentType": 5126,
      "count": 47,
      "max": [
        0.8760402798652649,
        -0.19523108005523682,
        5.975980281829834
      ],
      "min": [
        -1.3121118545532227,
        -0.3219991624355316,
        -1.400109887123108
      ],
      "bufferView": 2,
      "byteOffset": 0
    },
    {
      "type": "VEC3",
      "componentType": 5126,
      "count": 47,
      "bufferView": 2,
      "byteOffset": 12
    },
    {
      "type": "VEC2",
      "componentType": 5126,
      "count": 47,
      "bufferView": 2,
      "byteOffset": 24
    },
    {
      "type": "VEC3",
      "componentType": 5126,
      "count": 694,
      "max": [
        0.03873986750841141,
        16.817808151245117,
        0.9171000719070435
      ],
      "min": [
        -2.262028694152832,
        -17.069189071655273,
        -0.037183720618486404
      ],
      "bufferView": 3,
      "byteOffset": 0
    },
    {
      "type": "VEC3",
      "componentType": 5126,
      "count": 694,
      "bufferView": 3,
      "byteOffset": 12
    },
    {
      "type": "VEC2",
      "componentType": 5126,
      "count": 694,
      "bufferView": 3,
      "byteOffset": 24
    },
    {
      "type": "VEC3",
      "componentType": 5126,
      "count": 1214,
      "max": [
        1.0010625123977661,
        1.0971137285232544,
        0.9976097941398621
      ],
      "min": [
        -1.0010625123977661,
        -1.0980587005615234,
        -1.0010625123977661
      ],
      "bufferView": 4,
      "byteOffset": 0
    },
    {
      "type": "VEC3",
      "componentType": 5126,
      "count": 1214,
      "bufferView": 4,
      "byteOffset": 12
    },
    {
      "type": "VEC2",
      "componentType": 5126,
      "count": 1214,
      "bufferView": 4,
      "byteOffset": 24
    },
    {
      "type": "VEC3",
      "componentType": 5126,
      "count": 342,
      "max": [
        4.7192254066467285,
        6.052806854248047,
        6.498070240020752
      ],
      "min": [
        -5.351154804229736,
        -10.090116500854492,
        -5.918527603149414
      ],
      "bufferView": 5,
      "byteOffset": 0
    },
    {
      "type": "VEC3",
      "componentType": 5126,
      "count": 342,
      "bufferView": 5,
      "byteOffset": 12
    },
    {
      "type": "VEC2",
      "componentType": 5126,
      "count": 342,
      "bufferView": 5,
      "byteOffset": 24
    },
    {
      "type": "VEC3",
      "componentType": 5126,
      "count": 736,
      "max": [
        10.632144927978516,
        -2.428922414779663,
        72.69341278076172
      ],
      "min": [
        -2.9794414043426514,
        -197.86756896972656,
        13.251901626586914
      ],
      "bufferView": 6,
      "byteOffset": 0
    },
    {
      "type": "VEC3",
      "componentType": 5126,
      "count": 736,
      "bufferView": 6,
      "byteOffset": 12
    },
    {
      "type": "VEC2",
      "componentType": 5126,
      "count": 736,
      "bufferView": 6,
      "byteOffset": 24
    }
  ],
  "bufferViews": [
    {
      "buffer": 0,
      "byteOffset": 0,
      "byteLength": 39424,
      "byteStride": 32,
      "target": 34962
    },
    {
      "buffer": 0,
      "byteOffset": 39424,
      "byteLength": 11636,
      "target": 34963
    },
    {
      "buffer": 0,
      "byteOffset": 51060,
      "byteLength": 1504,
      "byteStride": 32,
      "target": 34962
    },
    {
      "buffer": 0,
      "byteOffset": 52564,
      "byteLength": 22208,
      "byteStride": 32,
      "target": 34962
    },
    {
      "buffer": 0,
      "byteOffset": 74772,
      "byteLength": 38848,
      "byteStride": 32,
      "target": 34962
    },
    {
      "buffer": 0,
      "byteOffset": 113620,
      "byteLength": 10944,
      "byteStride": 32,
      "target": 34962
    },
    {
      "buffer": 0,
      "byteOffset": 124564,
      "byteLength": 23552,
      "byteStride": 32,
      "target": 34962
    }
  ],
  "buffers": [
    {
      "uri": "buffer.bin",
      "byteLength": 148116
    }
  ],
  "materials": [
    {
      "name": "Bicycle Mat",
      "doubleSided": true,
      "pbrMetallicRoughness": {
        "roughnessFactor": 0.5,
        "metallicFactor": 0
      }
    }
  ],
  "meshes": [
    {
      "primitives": [
        {
          "attributes": {
            "POSITION": 0,
            "NORMAL": 1,
            "TEXCOORD_0": 2
          },
          "mode": 4,
          "material": 0,
          "extras": {
            "__blendVertexMap": [
              26,
              25,
              24,
              28,
              27,
              25,
              30,
              29,
              27,
              32,
              31,
              29,
              36,
              35,
              33,
              52,
              16,
              53,
              54,
              17,
              55,
              59,
              19,
              57,
              62,
              22,
              64,
              65,
              23,
              63,
              69,
              26,
              67,
              68,
              25,
              70,
              73,
              28,
              71,
              72,
              27,
              74,
              82,
              33,
              84,
              87,
              36,
              85,
              86,
              35,
              88,
              90,
              38,
              92,
              93,
              39,
              91,
              94,
              40,
              96,
              97,
              41,
              95,
              101,
              43,
              99,
              151,
              46,
              48,
              107,
              49,
              105,
              108,
              50,
              110,
              204,
              192,
              190,
              151,
              134,
              135,
              151,
              135,
              194,
              193,
              151,
              194,
              245,
              197,
              198,
              193,
              256,
              225,
              177,
              227,
              176,
              245,
              208,
              246,
              249,
              182,
              200,
              249,
              200,
              221,
              184,
              230,
              185,
              255,
              204,
              191,
              207,
              206,
              175,
              182,
              209,
              214,
              206,
              219,
              205,
              193,
              218,
              191,
              208,
              213,
              179,
              201,
              249,
              210,
              256,
              205,
              211,
              251,
              202,
              222,
              206,
              258,
              226,
              245,
              198,
              208,
              187,
              251,
              222,
              256,
              255,
              225,
              179,
              246,
              208,
              253,
              203,
              223,
              246,
              199,
              220,
              207,
              212,
              243,
              223,
              217,
              224,
              210,
              215,
              201,
              222,
              216,
              187,
              197,
              212,
              175,
              204,
              224,
              217,
              179,
              213,
              198,
              182,
              214,
              199,
              225,
              218,
              193,
              197,
              243,
              212,
              201,
              215,
              200,
              187,
              216,
              202,
              226,
              219,
              206,
              204,
              217,
              203,
              195,
              234,
              196,
              186,
              231,
              188,
              178,
              228,
              180,
              189,
              232,
              190,
              181,
              229,
              183,
              192,
              233,
              194,
              4,
              249,
              6,
              262,
              264,
              260,
              260,
              263,
              261,
              263,
              262,
              261,
              20,
              18,
              19,
              21,
              22,
              20,
              21,
              23,
              24,
              22,
              23,
              26,
              33,
              31,
              32,
              34,
              26,
              28,
              25,
              28,
              30,
              27,
              30,
              32,
              29,
              38,
              35,
              37,
              39,
              34,
              36,
              33,
              36,
              37,
              35,
              40,
              38,
              39,
              41,
              42,
              40,
              41,
              43,
              44,
              42,
              43,
              45,
              46,
              44,
              45,
              47,
              48,
              46,
              47,
              49,
              50,
              48,
              49,
              51,
              16,
              50,
              51,
              17,
              18,
              56,
              53,
              16,
              17,
              54,
              57,
              19,
              20,
              60,
              58,
              18,
              58,
              56,
              18,
              19,
              59,
              61,
              21,
              20,
              22,
              62,
              60,
              21,
              61,
              63,
              23,
              24,
              66,
              64,
              22,
              23,
              65,
              67,
              26,
              24,
              25,
              68,
              66,
              28,
              26,
              69,
              71,
              25,
              27,
              72,
              70,
              28,
              73,
              75,
              30,
              29,
              76,
              74,
              27,
              30,
              77,
              79,
              32,
              75,
              77,
              30,
              78,
              76,
              29,
              31,
              80,
              78,
              29,
              31,
              33,
              82,
              80,
              79,
              81,
              32,
              32,
              81,
              83,
              34,
              36,
              34,
              83,
              85,
              33,
              35,
              86,
              84,
              37,
              36,
              87,
              89,
              35,
              38,
              90,
              88,
              37,
              89,
              91,
              39,
              40,
              94,
              92,
              38,
              39,
              93,
              95,
              41,
              42,
              98,
              96,
              40,
              43,
              41,
              97,
              99,
              44,
              102,
              100,
              42,
              100,
              98,
              42,
              45,
              43,
              101,
              103,
              46,
              104,
              102,
              44,
              45,
              103,
              105,
              47,
              48,
              50,
              108,
              106,
              151,
              104,
              46,
              105,
              49,
              47,
              106,
              151,
              48,
              49,
              107,
              109,
              51,
              16,
              52,
              110,
              50,
              109,
              111,
              51,
              17,
              51,
              111,
              55,
              186,
              185,
              201,
              202,
              185,
              184,
              200,
              201,
              184,
              183,
              182,
              200,
              182,
              199,
              181,
              183,
              179,
              198,
              178,
              180,
              199,
              179,
              180,
              181,
              198,
              197,
              176,
              178,
              175,
              206,
              196,
              177,
              197,
              175,
              177,
              176,
              206,
              205,
              195,
              196,
              205,
              193,
              194,
              195,
              193,
              191,
              192,
              194,
              191,
              204,
              190,
              192,
              203,
              204,
              190,
              189,
              189,
              188,
              187,
              203,
              188,
              186,
              202,
              187,
              112,
              201,
              82,
              170,
              113,
              185,
              201,
              112,
              149,
              150,
              94,
              95,
              147,
              91,
              188,
              143,
              169,
              168,
              63,
              62,
              142,
              187,
              90,
              148,
              167,
              166,
              75,
              74,
              147,
              148,
              90,
              91,
              165,
              83,
              185,
              113,
              144,
              162,
              78,
              79,
              146,
              70,
              71,
              145,
              164,
              163,
              67,
              66,
              144,
              79,
              184,
              117,
              116,
              200,
              78,
              162,
              160,
              137,
              192,
              103,
              136,
              161,
              102,
              191,
              119,
              166,
              167,
              118,
              142,
              148,
              147,
              143,
              141,
              150,
              149,
              140,
              133,
              152,
              153,
              132,
              114,
              115,
              154,
              155,
              129,
              156,
              157,
              128,
              138,
              159,
              158,
              139,
              136,
              137,
              160,
              161,
              116,
              162,
              144,
              117,
              112,
              170,
              165,
              113,
              121,
              120,
              146,
              145,
              125,
              163,
              164,
              124,
              123,
              168,
              169,
              122,
              127,
              126,
              172,
              171,
              131,
              130,
              174,
              173,
              141,
              203,
              94,
              150,
              115,
              114,
              202,
              186,
              165,
              170,
              82,
              83,
              149,
              95,
              189,
              140,
              117,
              184,
              200,
              116,
              167,
              74,
              182,
              118,
              118,
              182,
              183,
              119,
              151,
              193,
              134,
              119,
              183,
              75,
              166,
              120,
              121,
              181,
              199,
              146,
              120,
              199,
              70,
              153,
              152,
              107,
              106,
              122,
              198,
              178,
              123,
              121,
              145,
              71,
              181,
              153,
              106,
              205,
              132,
              124,
              179,
              180,
              125,
              164,
              66,
              179,
              124,
              133,
              195,
              107,
              152,
              126,
              127,
              176,
              197,
              125,
              180,
              67,
              163,
              154,
              87,
              86,
              155,
              128,
              206,
              196,
              129,
              169,
              62,
              198,
              122,
              114,
              155,
              86,
              202,
              130,
              131,
              177,
              175,
              123,
              178,
              63,
              168,
              154,
              115,
              186,
              87,
              132,
              205,
              195,
              133,
              172,
              58,
              59,
              171,
              157,
              156,
              111,
              110,
              135,
              134,
              193,
              194,
              172,
              126,
              197,
              58,
              157,
              110,
              206,
              128,
              137,
              136,
              191,
              192,
              127,
              171,
              59,
              176,
              129,
              196,
              111,
              156,
              139,
              190,
              204,
              138,
              174,
              53,
              54,
              173,
              158,
              159,
              98,
              99,
              140,
              189,
              203,
              141,
              174,
              130,
              175,
              53,
              138,
              204,
              98,
              159,
              131,
              173,
              54,
              177,
              158,
              99,
              190,
              139,
              143,
              188,
              187,
              142,
              160,
              103,
              102,
              161,
              181,
              71,
              70,
              199,
              180,
              179,
              66,
              67,
              178,
              198,
              62,
              63,
              59,
              58,
              197,
              176,
              54,
              53,
              175,
              177,
              196,
              206,
              110,
              111,
              195,
              205,
              106,
              107,
              192,
              191,
              102,
              103,
              99,
              98,
              204,
              190,
              94,
              203,
              189,
              95,
              91,
              90,
              187,
              188,
              186,
              202,
              86,
              87,
              185,
              83,
              82,
              201,
              79,
              78,
              200,
              184,
              183,
              182,
              74,
              75,
              79,
              77,
              75,
              74,
              76,
              78,
              83,
              81,
              79,
              78,
              80,
              82,
              87,
              85,
              83,
              82,
              84,
              86,
              91,
              89,
              87,
              86,
              88,
              90,
              95,
              93,
              91,
              90,
              92,
              94,
              99,
              97,
              95,
              94,
              96,
              98,
              103,
              101,
              99,
              98,
              100,
              102,
              18,
              16,
              17,
              19,
              102,
              104,
              151,
              105,
              103,
              107,
              105,
              151,
              106,
              176,
              244,
              247,
              178,
              111,
              109,
              107,
              106,
              108,
              110,
              54,
              55,
              111,
              110,
              52,
              53,
              59,
              57,
              54,
              53,
              56,
              58,
              63,
              61,
              59,
              58,
              60,
              62,
              67,
              65,
              63,
              62,
              64,
              66,
              71,
              69,
              67,
              66,
              68,
              70,
              75,
              73,
              71,
              70,
              72,
              74,
              245,
              243,
              197,
              180,
              247,
              248,
              181,
              246,
              179,
              199,
              238,
              230,
              184,
              250,
              184,
              183,
              248,
              250,
              249,
              209,
              182,
              202,
              251,
              249,
              201,
              185,
              250,
              252,
              186,
              187,
              203,
              253,
              251,
              188,
              252,
              254,
              189,
              241,
              233,
              192,
              257,
              190,
              254,
              257,
              192,
              255,
              224,
              204,
              237,
              248,
              183,
              229,
              195,
              194,
              257,
              259,
              256,
              193,
              205,
              196,
              259,
              244,
              177,
              207,
              258,
              206,
              226,
              258,
              256,
              211,
              200,
              215,
              221,
              199,
              214,
              220,
              224,
              253,
              223,
              209,
              246,
              220,
              249,
              221,
              210,
              225,
              255,
              191,
              218,
              209,
              220,
              214,
              210,
              221,
              215,
              226,
              211,
              219,
              202,
              216,
              222,
              203,
              217,
              223,
              241,
              257,
              194,
              233,
              205,
              219,
              211,
              175,
              212,
              207,
              198,
              213,
              208,
              238,
              250,
              185,
              230,
              235,
              227,
              177,
              244,
              242,
              234,
              195,
              259,
              235,
              244,
              176,
              227,
              239,
              231,
              186,
              252,
              242,
              259,
              196,
              234,
              236,
              228,
              178,
              247,
              239,
              252,
              188,
              231,
              236,
              247,
              180,
              228,
              240,
              232,
              189,
              254,
              237,
              229,
              181,
              248,
              240,
              254,
              190,
              232,
              207,
              243,
              0,
              258,
              244,
              1,
              3,
              247,
              0,
              243,
              245,
              246,
              2,
              0,
              245,
              247,
              3,
              5,
              248,
              246,
              209,
              4,
              2,
              250,
              248,
              5,
              7,
              4,
              209,
              249,
              249,
              251,
              8,
              6,
              252,
              250,
              7,
              9,
              251,
              253,
              10,
              8,
              252,
              9,
              12,
              254,
              253,
              224,
              11,
              10,
              254,
              12,
              14,
              257,
              11,
              224,
              255,
              255,
              256,
              13,
              11,
              259,
              257,
              14,
              15,
              244,
              259,
              15,
              1,
              13,
              256,
              258,
              264,
              263,
              260,
              263,
              264,
              262,
              261,
              262,
              260
            ]
          },
          "indices": 3
        }
      ]
    },
    {
      "primitives": [
        {
          "attributes": {
            "POSITION": 9,
            "NORMAL": 10,
            "TEXCOORD_0": 11
          },
          "mode": 4,
          "material": 0,
          "extras": {
            "__blendVertexMap": [
              12,
              14,
              11,
              2,
              11,
              10,
              4,
              12,
              3,
              5,
              15,
              13,
              18,
              7,
              8,
              17,
              9,
              0,
              16,
              0,
              1,
              7,
              18,
              15,
              6,
              2,
              3,
              11,
              3,
              12,
              11,
              4,
              13,
              12,
              4,
              5,
              13,
              15,
              5,
              6,
              8,
              9,
              17,
              18,
              1,
              10,
              16
            ]
          },
          "indices": 4
        }
      ]
    },
    {
      "primitives": [
        {
          "attributes": {
            "POSITION": 12,
            "NORMAL": 13,
            "TEXCOORD_0": 14
          },
          "mode": 4,
          "material": 0,
          "extras": {
            "__blendVertexMap": [
              2,
              4,
              0,
              0,
              3,
              1,
              3,
              2,
              1,
              4,
              3,
              0,
              3,
              4,
              2,
              1,
              2,
              0,
              5,
              8,
              10,
              19,
              15,
              17,
              43,
              55,
              54,
              45,
              56,
              55,
              50,
              58,
              63,
              50,
              59,
              58,
              43,
              67,
              45,
              62,
              69,
              47,
              53,
              65,
              70,
              53,
              70,
              66,
              69,
              71,
              63,
              63,
              71,
              50,
              88,
              87,
              85,
              87,
              90,
              89,
              89,
              92,
              91,
              96,
              95,
              94,
              95,
              98,
              97,
              100,
              99,
              97,
              86,
              85,
              99,
              75,
              90,
              88,
              77,
              92,
              90,
              103,
              92,
              77,
              79,
              95,
              81,
              82,
              98,
              96,
              81,
              97,
              104,
              105,
              100,
              98,
              104,
              97,
              99,
              84,
              100,
              105,
              101,
              86,
              84,
              106,
              150,
              143,
              77,
              121,
              122,
              80,
              123,
              82,
              75,
              120,
              121,
              103,
              122,
              123,
              74,
              127,
              134,
              78,
              129,
              76,
              102,
              128,
              127,
              76,
              128,
              102,
              108,
              121,
              107,
              109,
              122,
              108,
              111,
              125,
              110,
              106,
              126,
              111,
              118,
              134,
              127,
              118,
              127,
              112,
              112,
              128,
              113,
              115,
              130,
              131,
              112,
              136,
              135,
              114,
              138,
              137,
              118,
              142,
              117,
              115,
              139,
              138,
              106,
              143,
              107,
              107,
              144,
              108,
              111,
              149,
              150,
              8,
              7,
              9,
              10,
              12,
              5,
              6,
              11,
              32,
              29,
              21,
              24,
              9,
              7,
              6,
              11,
              6,
              7,
              14,
              12,
              13,
              8,
              5,
              13,
              14,
              7,
              8,
              18,
              17,
              15,
              16,
              20,
              19,
              17,
              18,
              22,
              16,
              15,
              21,
              25,
              11,
              14,
              28,
              18,
              16,
              20,
              24,
              21,
              15,
              19,
              23,
              20,
              16,
              22,
              23,
              24,
              19,
              20,
              34,
              26,
              25,
              33,
              36,
              33,
              25,
              28,
              26,
              12,
              11,
              25,
              30,
              22,
              21,
              29,
              26,
              27,
              13,
              12,
              31,
              23,
              22,
              30,
              27,
              28,
              14,
              13,
              31,
              32,
              24,
              23,
              34,
              33,
              36,
              35,
              37,
              40,
              39,
              38,
              38,
              39,
              31,
              30,
              39,
              40,
              32,
              31,
              35,
              27,
              26,
              34,
              35,
              36,
              28,
              27,
              37,
              29,
              32,
              40,
              38,
              30,
              29,
              37,
              36,
              37,
              29,
              28,
              29,
              30,
              27,
              28,
              35,
              27,
              30,
              38,
              36,
              35,
              38,
              37,
              55,
              42,
              41,
              54,
              56,
              44,
              42,
              55,
              57,
              46,
              44,
              56,
              58,
              48,
              46,
              57,
              49,
              48,
              58,
              59,
              51,
              49,
              59,
              60,
              52,
              51,
              60,
              61,
              41,
              52,
              61,
              54,
              56,
              62,
              47,
              57,
              42,
              44,
              46,
              48,
              49,
              51,
              52,
              41,
              43,
              45,
              55,
              45,
              62,
              56,
              57,
              47,
              63,
              58,
              60,
              59,
              64,
              65,
              50,
              64,
              59,
              60,
              65,
              53,
              61,
              61,
              53,
              43,
              54,
              72,
              73,
              65,
              64,
              72,
              50,
              71,
              64,
              50,
              72,
              45,
              67,
              68,
              45,
              68,
              62,
              47,
              69,
              63,
              43,
              53,
              66,
              62,
              68,
              69,
              70,
              65,
              73,
              43,
              66,
              67,
              68,
              67,
              66,
              71,
              69,
              73,
              72,
              71,
              66,
              70,
              94,
              91,
              93,
              96,
              86,
              88,
              85,
              88,
              90,
              87,
              90,
              92,
              89,
              91,
              92,
              93,
              87,
              102,
              74,
              85,
              96,
              98,
              95,
              98,
              100,
              97,
              99,
              100,
              86,
              101,
              88,
              86,
              89,
              76,
              102,
              87,
              101,
              75,
              88,
              89,
              91,
              78,
              76,
              75,
              77,
              90,
              91,
              94,
              79,
              78,
              103,
              93,
              92,
              93,
              103,
              80,
              96,
              99,
              85,
              74,
              83,
              79,
              94,
              95,
              80,
              82,
              96,
              81,
              95,
              97,
              82,
              105,
              98,
              83,
              104,
              99,
              84,
              86,
              100,
              119,
              101,
              84,
              126,
              133,
              132,
              81,
              104,
              126,
              84,
              105,
              125,
              77,
              75,
              121,
              80,
              103,
              123,
              119,
              120,
              75,
              101,
              125,
              105,
              82,
              124,
              103,
              77,
              122,
              82,
              123,
              124,
              131,
              79,
              81,
              132,
              76,
              129,
              128,
              74,
              102,
              127,
              134,
              133,
              104,
              83,
              130,
              78,
              79,
              131,
              78,
              130,
              129,
              83,
              74,
              134,
              120,
              119,
              106,
              107,
              124,
              123,
              109,
              110,
              107,
              121,
              120,
              108,
              122,
              121,
              109,
              123,
              122,
              129,
              114,
              113,
              128,
              110,
              125,
              124,
              111,
              126,
              125,
              106,
              119,
              126,
              112,
              127,
              128,
              129,
              130,
              115,
              114,
              132,
              116,
              115,
              131,
              133,
              117,
              116,
              132,
              133,
              134,
              118,
              117,
              141,
              142,
              135,
              136,
              137,
              138,
              139,
              140,
              139,
              115,
              116,
              140,
              118,
              112,
              135,
              140,
              116,
              117,
              141,
              112,
              113,
              136,
              137,
              136,
              113,
              114,
              117,
              142,
              141,
              114,
              115,
              138,
              118,
              135,
              142,
              147,
              148,
              110,
              109,
              150,
              149,
              148,
              147,
              146,
              145,
              144,
              143,
              109,
              146,
              147,
              148,
              149,
              111,
              110,
              107,
              143,
              144,
              146,
              109,
              108,
              145,
              108,
              144,
              145,
              106,
              111,
              150,
              152,
              151,
              157,
              156,
              155,
              154,
              153,
              161,
              160,
              159,
              158,
              164,
              163,
              162,
              10,
              9,
              6,
              5
            ]
          },
          "indices": 5
        }
      ]
    },
    {
      "primitives": [
        {
          "attributes": {
            "POSITION": 15,
            "NORMAL": 16,
            "TEXCOORD_0": 17
          },
          "mode": 4,
          "material": 0,
          "extras": {
            "__blendVertexMap": [
              26,
              25,
              24,
              28,
              27,
              25,
              30,
              29,
              27,
              32,
              31,
              29,
              36,
              35,
              33,
              52,
              16,
              53,
              54,
              17,
              55,
              59,
              19,
              57,
              62,
              22,
              64,
              65,
              23,
              63,
              69,
              26,
              67,
              68,
              25,
              70,
              73,
              28,
              71,
              72,
              27,
              74,
              82,
              33,
              84,
              87,
              36,
              85,
              86,
              35,
              88,
              90,
              38,
              92,
              93,
              39,
              91,
              94,
              40,
              96,
              97,
              41,
              95,
              101,
              43,
              99,
              151,
              46,
              48,
              107,
              49,
              105,
              108,
              50,
              110,
              204,
              192,
              190,
              151,
              134,
              135,
              151,
              135,
              194,
              193,
              151,
              194,
              245,
              197,
              198,
              193,
              256,
              225,
              177,
              227,
              176,
              245,
              208,
              246,
              249,
              182,
              200,
              249,
              200,
              221,
              184,
              230,
              185,
              255,
              204,
              191,
              207,
              206,
              175,
              182,
              209,
              214,
              206,
              219,
              205,
              193,
              218,
              191,
              208,
              213,
              179,
              201,
              249,
              210,
              256,
              205,
              211,
              251,
              202,
              222,
              206,
              258,
              226,
              245,
              198,
              208,
              187,
              251,
              222,
              256,
              255,
              225,
              179,
              246,
              208,
              253,
              203,
              223,
              246,
              199,
              220,
              207,
              212,
              243,
              223,
              217,
              224,
              210,
              215,
              201,
              222,
              216,
              187,
              197,
              212,
              175,
              204,
              224,
              217,
              179,
              213,
              198,
              182,
              214,
              199,
              225,
              218,
              193,
              197,
              243,
              212,
              201,
              215,
              200,
              187,
              216,
              202,
              226,
              219,
              206,
              204,
              217,
              203,
              195,
              234,
              196,
              186,
              231,
              188,
              178,
              228,
              180,
              189,
              232,
              190,
              181,
              229,
              183,
              192,
              233,
              194,
              4,
              249,
              6,
              20,
              18,
              19,
              21,
              22,
              20,
              21,
              23,
              24,
              22,
              23,
              26,
              33,
              31,
              32,
              34,
              26,
              28,
              25,
              28,
              30,
              27,
              30,
              32,
              29,
              38,
              35,
              37,
              39,
              34,
              36,
              33,
              36,
              37,
              35,
              40,
              38,
              39,
              41,
              42,
              40,
              41,
              43,
              44,
              42,
              43,
              45,
              46,
              44,
              45,
              47,
              48,
              46,
              47,
              49,
              50,
              48,
              49,
              51,
              16,
              50,
              51,
              17,
              18,
              56,
              53,
              16,
              17,
              54,
              57,
              19,
              20,
              60,
              58,
              18,
              58,
              56,
              18,
              19,
              59,
              61,
              21,
              20,
              22,
              62,
              60,
              21,
              61,
              63,
              23,
              24,
              66,
              64,
              22,
              23,
              65,
              67,
              26,
              24,
              25,
              68,
              66,
              28,
              26,
              69,
              71,
              25,
              27,
              72,
              70,
              28,
              73,
              75,
              30,
              29,
              76,
              74,
              27,
              30,
              77,
              79,
              32,
              75,
              77,
              30,
              78,
              76,
              29,
              31,
              80,
              78,
              29,
              31,
              33,
              82,
              80,
              79,
              81,
              32,
              32,
              81,
              83,
              34,
              36,
              34,
              83,
              85,
              33,
              35,
              86,
              84,
              37,
              36,
              87,
              89,
              35,
              38,
              90,
              88,
              37,
              89,
              91,
              39,
              40,
              94,
              92,
              38,
              39,
              93,
              95,
              41,
              42,
              98,
              96,
              40,
              43,
              41,
              97,
              99,
              44,
              102,
              100,
              42,
              100,
              98,
              42,
              45,
              43,
              101,
              103,
              46,
              104,
              102,
              44,
              45,
              103,
              105,
              47,
              48,
              50,
              108,
              106,
              151,
              104,
              46,
              105,
              49,
              47,
              106,
              151,
              48,
              49,
              107,
              109,
              51,
              16,
              52,
              110,
              50,
              109,
              111,
              51,
              17,
              51,
              111,
              55,
              186,
              185,
              201,
              202,
              185,
              184,
              200,
              201,
              184,
              183,
              182,
              200,
              182,
              199,
              181,
              183,
              179,
              198,
              178,
              180,
              199,
              179,
              180,
              181,
              198,
              197,
              176,
              178,
              175,
              206,
              196,
              177,
              197,
              175,
              177,
              176,
              206,
              205,
              195,
              196,
              205,
              193,
              194,
              195,
              193,
              191,
              192,
              194,
              191,
              204,
              190,
              192,
              203,
              204,
              190,
              189,
              189,
              188,
              187,
              203,
              188,
              186,
              202,
              187,
              112,
              201,
              82,
              170,
              113,
              185,
              201,
              112,
              149,
              150,
              94,
              95,
              147,
              91,
              188,
              143,
              169,
              168,
              63,
              62,
              142,
              187,
              90,
              148,
              167,
              166,
              75,
              74,
              147,
              148,
              90,
              91,
              165,
              83,
              185,
              113,
              144,
              162,
              78,
              79,
              146,
              70,
              71,
              145,
              164,
              163,
              67,
              66,
              144,
              79,
              184,
              117,
              116,
              200,
              78,
              162,
              160,
              137,
              192,
              103,
              136,
              161,
              102,
              191,
              119,
              166,
              167,
              118,
              142,
              148,
              147,
              143,
              141,
              150,
              149,
              140,
              133,
              152,
              153,
              132,
              114,
              115,
              154,
              155,
              129,
              156,
              157,
              128,
              138,
              159,
              158,
              139,
              136,
              137,
              160,
              161,
              116,
              162,
              144,
              117,
              112,
              170,
              165,
              113,
              121,
              120,
              146,
              145,
              125,
              163,
              164,
              124,
              123,
              168,
              169,
              122,
              127,
              126,
              172,
              171,
              131,
              130,
              174,
              173,
              141,
              203,
              94,
              150,
              115,
              114,
              202,
              186,
              165,
              170,
              82,
              83,
              149,
              95,
              189,
              140,
              117,
              184,
              200,
              116,
              167,
              74,
              182,
              118,
              118,
              182,
              183,
              119,
              151,
              193,
              134,
              119,
              183,
              75,
              166,
              120,
              121,
              181,
              199,
              146,
              120,
              199,
              70,
              153,
              152,
              107,
              106,
              122,
              198,
              178,
              123,
              121,
              145,
              71,
              181,
              153,
              106,
              205,
              132,
              124,
              179,
              180,
              125,
              164,
              66,
              179,
              124,
              133,
              195,
              107,
              152,
              126,
              127,
              176,
              197,
              125,
              180,
              67,
              163,
              154,
              87,
              86,
              155,
              128,
              206,
              196,
              129,
              169,
              62,
              198,
              122,
              114,
              155,
              86,
              202,
              130,
              131,
              177,
              175,
              123,
              178,
              63,
              168,
              154,
              115,
              186,
              87,
              132,
              205,
              195,
              133,
              172,
              58,
              59,
              171,
              157,
              156,
              111,
              110,
              135,
              134,
              193,
              194,
              172,
              126,
              197,
              58,
              157,
              110,
              206,
              128,
              137,
              136,
              191,
              192,
              127,
              171,
              59,
              176,
              129,
              196,
              111,
              156,
              139,
              190,
              204,
              138,
              174,
              53,
              54,
              173,
              158,
              159,
              98,
              99,
              140,
              189,
              203,
              141,
              174,
              130,
              175,
              53,
              138,
              204,
              98,
              159,
              131,
              173,
              54,
              177,
              158,
              99,
              190,
              139,
              143,
              188,
              187,
              142,
              160,
              103,
              102,
              161,
              181,
              71,
              70,
              199,
              180,
              179,
              66,
              67,
              178,
              198,
              62,
              63,
              59,
              58,
              197,
              176,
              54,
              53,
              175,
              177,
              196,
              206,
              110,
              111,
              195,
              205,
              106,
              107,
              192,
              191,
              102,
              103,
              99,
              98,
              204,
              190,
              94,
              203,
              189,
              95,
              91,
              90,
              187,
              188,
              186,
              202,
              86,
              87,
              185,
              83,
              82,
              201,
              79,
              78,
              200,
              184,
              183,
              182,
              74,
              75,
              79,
              77,
              75,
              74,
              76,
              78,
              83,
              81,
              79,
              78,
              80,
              82,
              87,
              85,
              83,
              82,
              84,
              86,
              91,
              89,
              87,
              86,
              88,
              90,
              95,
              93,
              91,
              90,
              92,
              94,
              99,
              97,
              95,
              94,
              96,
              98,
              103,
              101,
              99,
              98,
              100,
              102,
              18,
              16,
              17,
              19,
              102,
              104,
              151,
              105,
              103,
              107,
              105,
              151,
              106,
              176,
              244,
              247,
              178,
              111,
              109,
              107,
              106,
              108,
              110,
              54,
              55,
              111,
              110,
              52,
              53,
              59,
              57,
              54,
              53,
              56,
              58,
              63,
              61,
              59,
              58,
              60,
              62,
              67,
              65,
              63,
              62,
              64,
              66,
              71,
              69,
              67,
              66,
              68,
              70,
              75,
              73,
              71,
              70,
              72,
              74,
              245,
              243,
              197,
              180,
              247,
              248,
              181,
              246,
              179,
              199,
              238,
              230,
              184,
              250,
              184,
              183,
              248,
              250,
              249,
              209,
              182,
              202,
              251,
              249,
              201,
              185,
              250,
              252,
              186,
              187,
              203,
              253,
              251,
              188,
              252,
              254,
              189,
              241,
              233,
              192,
              257,
              190,
              254,
              257,
              192,
              255,
              224,
              204,
              237,
              248,
              183,
              229,
              195,
              194,
              257,
              259,
              256,
              193,
              205,
              196,
              259,
              244,
              177,
              207,
              258,
              206,
              226,
              258,
              256,
              211,
              200,
              215,
              221,
              199,
              214,
              220,
              224,
              253,
              223,
              209,
              246,
              220,
              249,
              221,
              210,
              225,
              255,
              191,
              218,
              209,
              220,
              214,
              210,
              221,
              215,
              226,
              211,
              219,
              202,
              216,
              222,
              203,
              217,
              223,
              241,
              257,
              194,
              233,
              205,
              219,
              211,
              175,
              212,
              207,
              198,
              213,
              208,
              238,
              250,
              185,
              230,
              235,
              227,
              177,
              244,
              242,
              234,
              195,
              259,
              235,
              244,
              176,
              227,
              239,
              231,
              186,
              252,
              242,
              259,
              196,
              234,
              236,
              228,
              178,
              247,
              239,
              252,
              188,
              231,
              236,
              247,
              180,
              228,
              240,
              232,
              189,
              254,
              237,
              229,
              181,
              248,
              240,
              254,
              190,
              232,
              207,
              243,
              0,
              258,
              244,
              1,
              3,
              247,
              0,
              243,
              245,
              246,
              2,
              0,
              245,
              247,
              3,
              5,
              248,
              246,
              209,
              4,
              2,
              250,
              248,
              5,
              7,
              4,
              209,
              249,
              249,
              251,
              8,
              6,
              252,
              250,
              7,
              9,
              251,
              253,
              10,
              8,
              252,
              9,
              12,
              254,
              253,
              224,
              11,
              10,
              254,
              12,
              14,
              257,
              11,
              224,
              255,
              255,
              256,
              13,
              11,
              259,
              257,
              14,
              15,
              244,
              259,
              15,
              1,
              13,
              256,
              258
            ]
          },
          "indices": 6
        }
      ]
    },
    {
      "primitives": [
        {
          "attributes": {
            "POSITION": 18,
            "NORMAL": 19,
            "TEXCOORD_0": 20
          },
          "mode": 4,
          "material": 0,
          "extras": {
            "__blendVertexMap": [
              3,
              5,
              73,
              5,
              4,
              74,
              37,
              23,
              22,
              25,
              24,
              22,
              28,
              27,
              26,
              27,
              30,
              29,
              32,
              31,
              29,
              31,
              34,
              33,
              35,
              38,
              37,
              8,
              23,
              6,
              11,
              25,
              8,
              10,
              27,
              12,
              13,
              30,
              28,
              14,
              29,
              31,
              17,
              32,
              15,
              16,
              31,
              33,
              18,
              34,
              17,
              20,
              38,
              36,
              16,
              44,
              43,
              39,
              47,
              51,
              44,
              49,
              43,
              40,
              50,
              47,
              45,
              49,
              44,
              41,
              50,
              40,
              45,
              51,
              49,
              13,
              55,
              15,
              17,
              57,
              18,
              15,
              56,
              17,
              53,
              60,
              54,
              54,
              61,
              55,
              55,
              61,
              62,
              58,
              59,
              52,
              72,
              64,
              71,
              65,
              66,
              70,
              3,
              4,
              5,
              2,
              3,
              73,
              0,
              74,
              4,
              1,
              26,
              24,
              25,
              28,
              73,
              5,
              74,
              3,
              1,
              4,
              22,
              23,
              25,
              35,
              33,
              34,
              36,
              28,
              30,
              27,
              30,
              32,
              29,
              31,
              32,
              34,
              2,
              0,
              1,
              3,
              52,
              6,
              20,
              58,
              36,
              38,
              35,
              42,
              41,
              12,
              14,
              38,
              23,
              37,
              37,
              22,
              7,
              21,
              22,
              24,
              9,
              7,
              8,
              25,
              23,
              24,
              26,
              10,
              9,
              35,
              19,
              16,
              33,
              11,
              28,
              25,
              10,
              26,
              27,
              11,
              13,
              28,
              12,
              27,
              29,
              13,
              15,
              30,
              14,
              12,
              29,
              15,
              32,
              30,
              16,
              14,
              31,
              17,
              34,
              32,
              36,
              34,
              18,
              20,
              37,
              21,
              19,
              35,
              44,
              16,
              19,
              45,
              20,
              6,
              38,
              6,
              23,
              38,
              46,
              21,
              7,
              39,
              43,
              42,
              14,
              16,
              10,
              41,
              40,
              10,
              12,
              41,
              45,
              19,
              21,
              46,
              39,
              7,
              9,
              40,
              50,
              41,
              42,
              48,
              9,
              10,
              40,
              48,
              42,
              43,
              49,
              46,
              39,
              51,
              39,
              40,
              47,
              45,
              46,
              51,
              50,
              48,
              49,
              51,
              47,
              54,
              11,
              8,
              53,
              58,
              20,
              18,
              57,
              15,
              55,
              56,
              53,
              8,
              6,
              52,
              55,
              13,
              11,
              54,
              17,
              56,
              57,
              60,
              59,
              63,
              62,
              61,
              62,
              63,
              57,
              56,
              63,
              59,
              58,
              57,
              54,
              60,
              61,
              60,
              53,
              52,
              59,
              56,
              55,
              62,
              65,
              64,
              72,
              66,
              68,
              70,
              66,
              69,
              67,
              71,
              68,
              69,
              67,
              69,
              66,
              72,
              70,
              68,
              71,
              64,
              65,
              70,
              71,
              0,
              2,
              73,
              74,
              67,
              72,
              71
            ]
          },
          "indices": 7
        }
      ]
    },
    {
      "primitives": [
        {
          "attributes": {
            "POSITION": 21,
            "NORMAL": 22,
            "TEXCOORD_0": 23
          },
          "mode": 4,
          "material": 0,
          "extras": {
            "__blendVertexMap": [
              2,
              1,
              0,
              4,
              3,
              1,
              106,
              10,
              9,
              1,
              3,
              103,
              25,
              24,
              22,
              13,
              26,
              24,
              22,
              153,
              152,
              34,
              60,
              45,
              36,
              61,
              62,
              42,
              65,
              48,
              50,
              66,
              68,
              44,
              43,
              59,
              63,
              64,
              47,
              50,
              43,
              57,
              54,
              46,
              62,
              55,
              64,
              63,
              56,
              64,
              55,
              71,
              78,
              79,
              51,
              68,
              69,
              52,
              69,
              70,
              81,
              74,
              67,
              73,
              66,
              75,
              68,
              72,
              79,
              80,
              68,
              76,
              69,
              73,
              80,
              81,
              69,
              77,
              70,
              70,
              78,
              71,
              88,
              94,
              83,
              88,
              95,
              94,
              94,
              92,
              93,
              98,
              97,
              99,
              109,
              108,
              122,
              125,
              127,
              126,
              111,
              110,
              108,
              115,
              117,
              116,
              116,
              119,
              118,
              121,
              120,
              118,
              120,
              123,
              122,
              131,
              130,
              128,
              133,
              132,
              130,
              135,
              124,
              134,
              147,
              136,
              137,
              138,
              140,
              139,
              139,
              142,
              141,
              146,
              145,
              144,
              146,
              143,
              142,
              140,
              136,
              20,
              151,
              18,
              18,
              150,
              16,
              26,
              148,
              154,
              16,
              149,
              14,
              14,
              148,
              26,
              24,
              154,
              153,
              160,
              159,
              157,
              178,
              177,
              176,
              177,
              180,
              179,
              192,
              191,
              190,
              191,
              194,
              193,
              104,
              3,
              4,
              5,
              2,
              4,
              1,
              105,
              104,
              5,
              6,
              8,
              7,
              105,
              6,
              10,
              106,
              7,
              8,
              12,
              11,
              9,
              10,
              2,
              0,
              11,
              12,
              15,
              14,
              26,
              13,
              17,
              16,
              14,
              15,
              19,
              18,
              16,
              17,
              21,
              20,
              18,
              19,
              22,
              20,
              21,
              23,
              29,
              27,
              28,
              30,
              23,
              25,
              22,
              25,
              13,
              24,
              31,
              29,
              30,
              32,
              33,
              31,
              32,
              34,
              35,
              33,
              34,
              36,
              38,
              37,
              35,
              36,
              40,
              39,
              37,
              38,
              42,
              41,
              39,
              40,
              28,
              27,
              41,
              42,
              57,
              30,
              28,
              58,
              41,
              27,
              29,
              31,
              33,
              35,
              37,
              39,
              43,
              44,
              32,
              30,
              30,
              57,
              43,
              44,
              60,
              34,
              32,
              45,
              61,
              36,
              34,
              46,
              38,
              36,
              62,
              47,
              40,
              38,
              63,
              38,
              46,
              63,
              65,
              42,
              40,
              47,
              48,
              58,
              28,
              42,
              57,
              58,
              49,
              50,
              60,
              44,
              59,
              47,
              64,
              65,
              59,
              43,
              50,
              51,
              59,
              51,
              52,
              60,
              45,
              52,
              53,
              61,
              52,
              45,
              60,
              61,
              53,
              54,
              62,
              63,
              46,
              54,
              55,
              65,
              56,
              49,
              48,
              56,
              65,
              64,
              72,
              55,
              54,
              71,
              49,
              58,
              48,
              73,
              56,
              55,
              72,
              51,
              50,
              68,
              67,
              49,
              56,
              73,
              52,
              51,
              69,
              70,
              71,
              54,
              53,
              53,
              52,
              70,
              67,
              66,
              50,
              49,
              77,
              76,
              75,
              74,
              81,
              80,
              79,
              78,
              72,
              71,
              79,
              68,
              75,
              76,
              73,
              72,
              80,
              69,
              76,
              77,
              75,
              66,
              67,
              74,
              70,
              77,
              78,
              82,
              85,
              86,
              83,
              91,
              97,
              100,
              91,
              86,
              97,
              82,
              84,
              87,
              85,
              86,
              91,
              88,
              83,
              91,
              90,
              89,
              88,
              90,
              87,
              84,
              89,
              96,
              92,
              94,
              95,
              93,
              92,
              84,
              82,
              96,
              89,
              84,
              92,
              93,
              82,
              83,
              94,
              95,
              88,
              89,
              96,
              101,
              100,
              97,
              98,
              100,
              101,
              90,
              91,
              99,
              97,
              86,
              85,
              99,
              85,
              87,
              98,
              101,
              98,
              87,
              90,
              103,
              102,
              0,
              1,
              106,
              9,
              107,
              102,
              103,
              3,
              104,
              105,
              7,
              107,
              11,
              0,
              102,
              113,
              110,
              112,
              114,
              11,
              107,
              9,
              109,
              111,
              108,
              110,
              111,
              112,
              129,
              131,
              128,
              117,
              115,
              113,
              114,
              127,
              125,
              124,
              135,
              129,
              128,
              126,
              127,
              117,
              119,
              116,
              118,
              119,
              121,
              120,
              121,
              123,
              121,
              119,
              117,
              114,
              112,
              111,
              109,
              123,
              122,
              123,
              109,
              122,
              108,
              110,
              113,
              115,
              116,
              118,
              120,
              134,
              132,
              133,
              135,
              131,
              133,
              130,
              133,
              131,
              129,
              127,
              135,
              126,
              128,
              130,
              132,
              134,
              124,
              125,
              140,
              138,
              137,
              136,
              144,
              141,
              143,
              146,
              139,
              140,
              142,
              142,
              143,
              141,
              147,
              145,
              146,
              136,
              138,
              139,
              141,
              144,
              145,
              147,
              137,
              152,
              151,
              20,
              22,
              153,
              154,
              148,
              149,
              150,
              151,
              152,
              16,
              150,
              149,
              158,
              157,
              155,
              156,
              24,
              26,
              154,
              14,
              149,
              148,
              22,
              24,
              153,
              18,
              151,
              150,
              174,
              172,
              173,
              175,
              158,
              160,
              157,
              178,
              180,
              177,
              159,
              160,
              161,
              162,
              159,
              161,
              163,
              165,
              164,
              162,
              163,
              167,
              166,
              164,
              165,
              169,
              168,
              166,
              167,
              170,
              168,
              169,
              171,
              169,
              167,
              165,
              163,
              161,
              160,
              158,
              156,
              171,
              176,
              174,
              175,
              178,
              155,
              170,
              171,
              156,
              182,
              181,
              179,
              180,
              155,
              157,
              159,
              162,
              164,
              166,
              168,
              170,
              184,
              183,
              181,
              182,
              173,
              172,
              183,
              184,
              182,
              180,
              178,
              175,
              173,
              184,
              174,
              176,
              177,
              179,
              181,
              183,
              172,
              186,
              197,
              185,
              187,
              188,
              186,
              187,
              189,
              190,
              188,
              189,
              192,
              196,
              195,
              193,
              194,
              192,
              194,
              191,
              185,
              197,
              195,
              196,
              189,
              187,
              185,
              196,
              194,
              192,
              195,
              197,
              186,
              188,
              190,
              191,
              193
            ]
          },
          "indices": 8
        }
      ]
    }
  ],
  "nodes": [
    {
      "name": "BackWheel",
      "translation": [
        0,
        1.0724304914474487,
        4
      ],
      "rotation": [
        0,
        0,
        0.7071068078790859,
        0.7071067544940082
      ],
      "scale": [
        -1.0000000000000029,
        0.04007232189178478,
        1
      ],
      "mesh": 0
    },
    {
      "name": "Chain",
      "translation": [
        0.17502988874912262,
        0.8280736804008484,
        2.1912589073181152
      ],
      "rotation": [
        0,
        0,
        -0.707106754494009,
        0.7071068078790851
      ],
      "scale": [
        0.35862040519714455,
        0.35862040519714455,
        0.35862040519714355
      ],
      "mesh": 1
    },
    {
      "name": "FrontWheel",
      "translation": [
        0,
        1.0724304914474487,
        0
      ],
      "rotation": [
        0,
        0,
        0.7071068078790859,
        0.7071067544940082
      ],
      "scale": [
        -1.0000000000000029,
        0.04007232189178478,
        1
      ],
      "mesh": 2
    },
    {
      "name": "FrontWheel.001",
      "translation": [
        0,
        1.0724304914474487,
        0
      ],
      "rotation": [
        0,
        0,
        0.7071068078790859,
        0.7071067544940082
      ],
      "scale": [
        -1.0000000000000029,
        0.04007232189178478,
        1
      ],
      "mesh": 3
    },
    {
      "name": "Pedals",
      "translation": [
        0.001169160008430481,
        0.8556178212165833,
        1.9401438236236572
      ],
      "scale": [
        0.09902279824018478,
        0.033843182027339935,
        0.09902279824018478
      ],
      "mesh": 4
    },
    {
      "name": "TopBar",
      "translation": [
        -0.13064861297607422,
        1.0724304914474487,
        0
      ],
      "rotation": [
        -0.5592719442996693,
        0,
        0,
        0.8289842533602599
      ],
      "scale": [
        0.03404298052191734,
        0.019157995595404435,
        0.034042981455583626
      ],
      "mesh": 5
    }
  ],
  "scenes": [
    {
      "name": "Scene",
      "nodes": [
        0,
        1,
        2,
        3,
        4,
        5
      ]
    }
  ],
  "scene": 0
}